<svg xmlns="http://www.w3.org/2000/svg" width="468.394" height="385.378" viewBox="0 0 468.394 385.378">
  <g id="home-hero" transform="translate(0 0)">
    <path id="Path_25" data-name="Path 25" d="M523.96,238.782H361.933a14.746,14.746,0,0,1-14.73-14.73v-60.2a14.747,14.747,0,0,1,14.73-14.73H523.96a14.747,14.747,0,0,1,14.73,14.73v60.2A14.746,14.746,0,0,1,523.96,238.782Z" transform="translate(-274.903 -149.123)" fill="#fff"/>
    <path id="Path_26" data-name="Path 26" d="M523.96,238.782H361.933a14.746,14.746,0,0,1-14.73-14.73v-60.2a14.747,14.747,0,0,1,14.73-14.73H523.96a14.747,14.747,0,0,1,14.73,14.73v60.2A14.746,14.746,0,0,1,523.96,238.782ZM361.933,150.4a13.464,13.464,0,0,0-13.449,13.449v60.2A13.464,13.464,0,0,0,361.933,237.5H523.96a13.464,13.464,0,0,0,13.449-13.449v-60.2A13.464,13.464,0,0,0,523.96,150.4Z" transform="translate(-274.903 -149.123)" fill="#9894ff"/>
    <path id="Path_27" data-name="Path 27" d="M666.543,277.352H580.361a7.116,7.116,0,0,1-1.614-.2,7.2,7.2,0,0,1-5.521-7.026V240.829a7.235,7.235,0,0,1,7.23-7.224h86.086a7.137,7.137,0,0,1,3.332.816,6.922,6.922,0,0,1,1.155.754,7.151,7.151,0,0,1,2.743,5.654v29.293A7.238,7.238,0,0,1,666.543,277.352Z" transform="translate(-356.176 -179.5)" fill="#fff"/>
    <path id="Path_28" data-name="Path 28" d="M709.917,285.054q5.869-14.265,12.367-28.249v15.806a76.784,76.784,0,0,1-10.2,12.443Z" transform="translate(-405.326 -187.842)" fill="#e6e6e6"/>
    <path id="Path_29" data-name="Path 29" d="M710.844,236.45q-11.614,20.836-24.3,41.038h-1.473q12.9-20.519,24.727-41.724A6.3,6.3,0,0,1,710.844,236.45Z" transform="translate(-396.391 -180.277)" fill="#e6e6e6"/>
    <path id="Path_30" data-name="Path 30" d="M622.279,260.461a261.107,261.107,0,0,1-16.721,25.873h-8.78q8.627-10.509,17.266-21.019c1.652-2.017,3.445-4.131,5.924-4.951Z" transform="translate(-364.644 -189.123)" fill="#e6e6e6"/>
    <path id="Path_31" data-name="Path 31" d="M609.61,256.638c-.916.954-1.793,1.947-2.619,2.978-1.819,2.19-3.612,4.4-5.412,6.6-1.121,1.371-2.241,2.741-3.349,4.112a8.174,8.174,0,0,1-1-.756,8.96,8.96,0,1,1,11.452-13.784,8.255,8.255,0,0,1,.927.847Z" transform="translate(-363.643 -186.734)" fill="#50e992"/>
    <path id="Path_32" data-name="Path 32" d="M654.852,260.231l-16.83-6.154-8.357-3.055c-2.722-.993-5.437-2.126-8.249-2.844a13,13,0,0,0-7.467.1,17.169,17.169,0,0,0-5.822,3.612q-1.114,1.028-2.158,2.12c-.916.954-1.793,1.947-2.619,2.978-1.819,2.19-3.612,4.4-5.412,6.6-1.121,1.371-2.242,2.741-3.349,4.112q-5.552,6.792-11.041,13.615a6.418,6.418,0,0,1-1.46-.186q5.725-7.109,11.5-14.185c.442-.551.9-1.108,1.345-1.659q2.815-3.449,5.636-6.891c1.454-1.774,2.895-3.561,4.47-5.232.141-.154.282-.3.429-.455,3.2-3.3,7.186-6.225,11.963-6.3a23.2,23.2,0,0,1,8.14,1.787c2.811,1.018,5.617,2.056,8.428,3.087l16.946,6.2,4.24,1.55C655.934,259.3,655.614,260.513,654.852,260.231Z" transform="translate(-359.362 -184.102)" fill="#e6e6e6"/>
    <path id="Path_33" data-name="Path 33" d="M666.543,277.352H580.361a7.116,7.116,0,0,1-1.614-.2,7.2,7.2,0,0,1-5.521-7.026V240.829a7.235,7.235,0,0,1,7.23-7.224h86.086a7.137,7.137,0,0,1,3.332.816,6.922,6.922,0,0,1,1.155.754,7.151,7.151,0,0,1,2.743,5.654v29.293A7.238,7.238,0,0,1,666.543,277.352Zm-86.086-42.467a5.953,5.953,0,0,0-5.95,5.943v29.293a5.928,5.928,0,0,0,4.544,5.782,5.848,5.848,0,0,0,1.318.168h86.174a5.957,5.957,0,0,0,5.95-5.95V240.829a5.882,5.882,0,0,0-2.259-4.652,5.676,5.676,0,0,0-.949-.62,5.872,5.872,0,0,0-2.742-.671Z" transform="translate(-356.176 -179.5)" fill="#9894ff"/>
    <path id="Path_34" data-name="Path 34" d="M373.282,316.845H249.04a14.746,14.746,0,0,1-14.73-14.73V280.341a14.747,14.747,0,0,1,14.73-14.73H373.282a14.747,14.747,0,0,1,14.73,14.73v21.774A14.746,14.746,0,0,1,373.282,316.845Z" transform="translate(-234.31 -191.009)" fill="#fff"/>
    <path id="Path_35" data-name="Path 35" d="M373.282,316.845H249.04a14.746,14.746,0,0,1-14.73-14.73V280.341a14.747,14.747,0,0,1,14.73-14.73H373.282a14.747,14.747,0,0,1,14.73,14.73v21.774A14.746,14.746,0,0,1,373.282,316.845ZM249.04,266.892a13.464,13.464,0,0,0-13.449,13.449v21.774a13.464,13.464,0,0,0,13.449,13.449H373.282a13.464,13.464,0,0,0,13.449-13.449V280.341a13.464,13.464,0,0,0-13.449-13.449Z" transform="translate(-234.31 -191.009)" fill="#9894ff"/>
    <path id="Path_36" data-name="Path 36" d="M300.8,311.474H280.824a4.031,4.031,0,0,1-4.027-4.027V288.762a4.031,4.031,0,0,1,4.027-4.027H300.8a4.031,4.031,0,0,1,4.027,4.027v18.685a4.031,4.031,0,0,1-4.027,4.027Z" transform="translate(-249.587 -197.885)" fill="#50e992"/>
    <path id="Path_37" data-name="Path 37" d="M356.429,311.474H336.455a4.031,4.031,0,0,1-4.027-4.027V288.762a4.031,4.031,0,0,1,4.027-4.027h19.974a4.031,4.031,0,0,1,4.027,4.027v18.685a4.031,4.031,0,0,1-4.027,4.027Z" transform="translate(-269.591 -197.885)" fill="#e6e6e6"/>
    <path id="Path_38" data-name="Path 38" d="M412.06,311.474H392.086a4.031,4.031,0,0,1-4.027-4.027V288.762a4.031,4.031,0,0,1,4.027-4.027H412.06a4.031,4.031,0,0,1,4.027,4.027v18.685a4.031,4.031,0,0,1-4.027,4.027Z" transform="translate(-289.594 -197.885)" fill="#e6e6e6"/>
    <path id="Path_39" data-name="Path 39" d="M493.217,201.734H467.6a2.562,2.562,0,1,1,0-5.123h25.617a2.562,2.562,0,1,1,0,5.123Z" transform="translate(-317.274 -166.198)" fill="#ccc"/>
    <path id="Path_40" data-name="Path 40" d="M547.934,223.734H466.6a2.562,2.562,0,0,1,0-5.123h81.334a2.562,2.562,0,0,1,0,5.123Z" transform="translate(-316.914 -174.109)" fill="#ccc"/>
    <circle id="Ellipse_1" data-name="Ellipse 1" cx="17.175" cy="17.175" r="17.175" transform="translate(102.727 22.844)" fill="#50e992"/>
    <path id="Path_41" data-name="Path 41" d="M614.067,412.27H452.04a14.746,14.746,0,0,1-14.73-14.73v-60.2a14.747,14.747,0,0,1,14.73-14.73H614.067a14.747,14.747,0,0,1,14.73,14.73v60.2a14.746,14.746,0,0,1-14.73,14.73Z" transform="translate(-307.304 -211.505)" fill="#fff"/>
    <path id="Path_42" data-name="Path 42" d="M614.067,412.27H452.04a14.746,14.746,0,0,1-14.73-14.73v-60.2a14.747,14.747,0,0,1,14.73-14.73H614.067a14.747,14.747,0,0,1,14.73,14.73v60.2a14.746,14.746,0,0,1-14.73,14.73ZM452.04,323.892a13.464,13.464,0,0,0-13.449,13.449v60.2A13.464,13.464,0,0,0,452.04,410.99H614.067a13.464,13.464,0,0,0,13.449-13.449v-60.2a13.464,13.464,0,0,0-13.449-13.449Z" transform="translate(-307.304 -211.505)" fill="#9894ff"/>
    <path id="Path_43" data-name="Path 43" d="M542.108,356.936H514.893a2.6,2.6,0,0,1,0-5.2h27.216a2.6,2.6,0,1,1,0,5.2Z" transform="translate(-334.266 -221.978)" fill="#50e992"/>
    <path id="Path_44" data-name="Path 44" d="M603.118,373.535H514.893a2.6,2.6,0,0,1,0-5.2h88.225a2.6,2.6,0,0,1,0,5.2Z" transform="translate(-334.266 -227.946)" fill="#e6e6e6"/>
    <path id="Path_45" data-name="Path 45" d="M603.118,392.587H514.893a2.6,2.6,0,1,1,0-5.2h88.225a2.6,2.6,0,0,1,0,5.2Z" transform="translate(-334.266 -234.797)" fill="#e6e6e6"/>
    <path id="Path_46" data-name="Path 46" d="M603.118,411.64H514.893a2.6,2.6,0,0,1,0-5.2h88.225a2.6,2.6,0,0,1,0,5.2Z" transform="translate(-334.266 -241.648)" fill="#e6e6e6"/>
    <path id="Path_47" data-name="Path 47" d="M603.118,430.693H514.893a2.6,2.6,0,0,1,0-5.2h88.225a2.6,2.6,0,0,1,0,5.2Z" transform="translate(-334.266 -248.499)" fill="#e6e6e6"/>
    <path id="Path_48" data-name="Path 48" d="M591.138,565.657h-8.893l-4.231-34.3H591.14Z" transform="translate(-207.839 -191.061)" fill="#f0c995"/>
    <path id="Path_49" data-name="Path 49" d="M817.951,740.228H790.6v-.346a10.645,10.645,0,0,1,10.644-10.644h0l5-3.79,9.321,3.79h2.387Z" transform="translate(-434.339 -356.354)" fill="#2f2e41"/>
    <path id="Path_50" data-name="Path 50" d="M678.734,543.618l-7.275,5.114-23.192-25.627L659,515.556Z" transform="translate(-233.101 -185.381)" fill="#f0c995"/>
    <path id="Path_51" data-name="Path 51" d="M925.122,715.017l-22.372,15.73-.2-.283a10.645,10.645,0,0,1,2.585-14.83h0l1.906-5.974,9.8-2.261,1.953-1.373Z" transform="translate(-473.896 -349.371)" fill="#2f2e41"/>
    <path id="Path_52" data-name="Path 52" d="M856.921,465.49l.739,1.579a56.37,56.37,0,0,1,4.212,33.278,1.885,1.885,0,0,0,.075,1.341c1.171,1.373-.666,7.339-1.719,10.669l-.949,5.89s1.573,5.471-.816,5.068,1.169,5.433-1.111,6.895l-5.914,36.71,24.672,40.664-9.138,13.25-36.552-47.06-.457-42.491-5.483,34.267-.457,53.914L807.4,617.7l-6.091-52.27,5.81-72.287,9.138-31.342Z" transform="translate(-438.189 -261.552)" fill="#2f2e41"/>
    <path id="Path_53" data-name="Path 53" d="M726.686,444.747a4.96,4.96,0,0,1,6.9-.474,4.758,4.758,0,0,1,.547.565l16.292-5.827,5.865,7.227-23.181,5.569a4.946,4.946,0,0,1-6.031-.286,4.733,4.733,0,0,1-.48-6.676Z" transform="translate(-410.91 -253.359)" fill="#f0c995"/>
    <path id="Path_54" data-name="Path 54" d="M847.657,320.611l-13.449.64-6.431,11.11-9.138,2.741-7.767,19.19,4.764,59.82s.955,3.618-.8,3.09-1.042,4.006-1.042,4.006l-6.481,24.925,58.919-5.123L862.957,414.6s4.549.147,1.35-3.051-4.754-2.179-1.681-5.96,3.529-6.522,3.529-6.522l1.371-18.733,2.26-26.363a25.332,25.332,0,0,0-9.57-22.068h0Z" transform="translate(-440.346 -210.786)" fill="#50e992"/>
    <path id="Path_55" data-name="Path 55" d="M914.967,508.6a4.96,4.96,0,0,0-1.228-6.808,4.754,4.754,0,0,0-.682-.392l1.665-17.222-8.442-3.92.269,23.839a4.946,4.946,0,0,0,1.753,5.778,4.733,4.733,0,0,0,6.591-1.168Q914.931,508.655,914.967,508.6Z" transform="translate(-475.915 -268.191)" fill="#f0c995"/>
    <path id="Path_56" data-name="Path 56" d="M893.874,349.91s19.367,46.135,18.782,63.851l-6.4,32.662-8.966-.64.641-29.46c3.271-3.345-10.42-22.235-14.933-35.529Z" transform="translate(-467.56 -221.321)" fill="#50e992"/>
    <path id="Path_57" data-name="Path 57" d="M803.731,342.526s-24.043,43.779-33.353,56.655l-7.068,5.52v8.966l16.434.363s24.444-20.332,23.53-30.383S803.731,342.526,803.731,342.526Z" transform="translate(-424.525 -218.666)" fill="#50e992"/>
    <circle id="Ellipse_2" data-name="Ellipse 2" cx="17.056" cy="17.056" r="17.056" transform="translate(383.28 72.629)" fill="#f0c995"/>
    <path id="Path_58" data-name="Path 58" d="M854.029,292.105c-4.894-.161-5.339-1.453-10.233-1.614-1.558-.051-3.4-.265-4.151-1.63a3.6,3.6,0,0,1,.183-3.2,29.278,29.278,0,0,0,1.508-2.966,5.18,5.18,0,0,0-5.133-6.83c-1.489.064-2.888.765-4.373.893-2.037.176-6.541-6.55-5.6-8.367.913-1.768,2.75-3.1,3.039-5.072.189-1.288-.343-2.568-.415-3.867-.108-1.927,4.777,2.418,3.882.708-2.194-4.2,18.485-9.4,21.889-4.141,1.272,1.964,3.54,1.83,5.561,3.009,1.325.773,4.67,3.44,5.43,5.1a12.941,12.941,0,0,1,.969,5.355c.031,8.527-1.268,16.37-8.146,21.41" transform="translate(-447.103 -186.763)" fill="#2f2e41"/>
    <path id="Path_59" data-name="Path 59" d="M723.465,717.824a31.173,31.173,0,0,1-25.143-9.379c-4.221-4.45-7.117-10.178-9.918-15.717-.815-1.612-1.658-3.279-2.516-4.876a9.948,9.948,0,0,1,1.032-11.1,9.781,9.781,0,0,1,10.441-3.336l.409.118,3.679,14.355c.549-2.141,1.727-6.965,2.471-11.692l.063-.4.366.163a50.031,50.031,0,0,1,10.75,6.478,51.572,51.572,0,0,1,19.285,38.837l.01.446Z" transform="translate(-396.245 -337.503)" fill="#f2f2f2"/>
    <path id="Path_60" data-name="Path 60" d="M863.84,749.714l-178.518.2a.763.763,0,1,1,0-1.525l178.518-.2a.763.763,0,1,1,0,1.525Z" transform="translate(-396.208 -364.532)" fill="#cacaca"/>
  </g>
</svg>
